<svg xmlns="http://www.w3.org/2000/svg" xmlns:xlink="http://www.w3.org/1999/xlink" version="1.1"  x="0px" y="0px" width="32" height="32" viewBox="0 0 24 24" style="enable-background:new 0 0 24 24;" xml:space="preserve" viewbox="0 0 32 32">
<path d="M18.92,2H5.08C2,2,2,5.08,2,5.08v13.84C2,22,5.08,22,5.08,22h13.84C22,22,22,18.92,22,18.92V5.08C22,2,18.92,2,18.92,2z   M8.62,17H6.75v-6.75h1.87V17z M7.69,9.12c-0.52,0-0.94-0.41-0.94-0.93s0.42-0.94,0.94-0.94s0.93,0.42,0.93,0.94  S8.21,9.12,7.69,9.12z M17.25,17h-1.87v-3.75c0-0.75-0.38-1.66-1.13-1.66c-1.07,0-1.5,0.91-1.5,1.66V17h-1.87v-6.75h1.87v0.86  c0.41-0.4,0.75-0.86,1.87-0.86c1.88,0,2.63,1.13,2.63,2.63V17z"></path>
</svg>